<?xml version="1.0" encoding="utf-8" standalone="no"?>
<!DOCTYPE svg PUBLIC "-//W3C//DTD SVG 1.1//EN"
  "http://www.w3.org/Graphics/SVG/1.1/DTD/svg11.dtd">
<svg height="576pt" version="1.1" viewBox="0 0 720 576" width="720pt" xmlns="http://www.w3.org/2000/svg" xmlns:xlink="http://www.w3.org/1999/xlink">
 <metadata>
  <rdf:RDF xmlns:cc="http://creativecommons.org/ns#" xmlns:dc="http://purl.org/dc/elements/1.1/" xmlns:rdf="http://www.w3.org/1999/02/22-rdf-syntax-ns#">
   <cc:Work>
    <dc:type rdf:resource="http://purl.org/dc/dcmitype/StillImage"/>
    <dc:date>2023-11-30T12:52:09.994852</dc:date>
    <dc:format>image/svg+xml</dc:format>
    <dc:creator>
     <cc:Agent>
      <dc:title>Matplotlib v3.4.3, https://matplotlib.org/</dc:title>
     </cc:Agent>
    </dc:creator>
   </cc:Work>
  </rdf:RDF>
 </metadata>
 <defs>
  <style type="text/css">*{stroke-linecap:butt;stroke-linejoin:round;}</style>
 </defs>
 <g id="figure_1">
  <g id="patch_1">
   <path d="M 0 576 
L 720 576 
L 720 0 
L 0 0 
z
" style="fill:none;"/>
  </g>
  <g id="axes_1">
   <g id="patch_2">
    <path d="M 90 504 
L 648 504 
L 648 69.12 
L 90 69.12 
z
" style="fill:none;"/>
   </g>
   <g id="matplotlib.axis_1">
    <g id="xtick_1">
     <g id="line2d_1">
      <defs>
       <path d="M 0 0 
L 0 6 
" id="m1c960e9863" style="stroke:#262626;"/>
      </defs>
      <g>
       <use style="fill:#262626;stroke:#262626;" x="90" xlink:href="#m1c960e9863" y="69.12"/>
      </g>
     </g>
    </g>
    <g id="xtick_2">
     <g id="line2d_2">
      <g>
       <use style="fill:#262626;stroke:#262626;" x="183" xlink:href="#m1c960e9863" y="69.12"/>
      </g>
     </g>
    </g>
    <g id="xtick_3">
     <g id="line2d_3">
      <g>
       <use style="fill:#262626;stroke:#262626;" x="276" xlink:href="#m1c960e9863" y="69.12"/>
      </g>
     </g>
    </g>
    <g id="xtick_4">
     <g id="line2d_4">
      <g>
       <use style="fill:#262626;stroke:#262626;" x="369" xlink:href="#m1c960e9863" y="69.12"/>
      </g>
     </g>
    </g>
    <g id="xtick_5">
     <g id="line2d_5">
      <g>
       <use style="fill:#262626;stroke:#262626;" x="462" xlink:href="#m1c960e9863" y="69.12"/>
      </g>
     </g>
    </g>
    <g id="xtick_6">
     <g id="line2d_6">
      <g>
       <use style="fill:#262626;stroke:#262626;" x="555" xlink:href="#m1c960e9863" y="69.12"/>
      </g>
     </g>
    </g>
    <g id="xtick_7">
     <g id="line2d_7">
      <g>
       <use style="fill:#262626;stroke:#262626;" x="648" xlink:href="#m1c960e9863" y="69.12"/>
      </g>
     </g>
    </g>
   </g>
   <g id="matplotlib.axis_2">
    <g id="ytick_1">
     <g id="line2d_8">
      <defs>
       <path d="M 0 0 
L -4 0 
" id="m98e78e0fff" style="stroke:#262626;"/>
      </defs>
      <g>
       <use style="fill:#262626;stroke:#262626;" x="648" xlink:href="#m98e78e0fff" y="504"/>
      </g>
     </g>
    </g>
    <g id="ytick_2">
     <g id="line2d_9">
      <g>
       <use style="fill:#262626;stroke:#262626;" x="648" xlink:href="#m98e78e0fff" y="431.52"/>
      </g>
     </g>
    </g>
    <g id="ytick_3">
     <g id="line2d_10">
      <g>
       <use style="fill:#262626;stroke:#262626;" x="648" xlink:href="#m98e78e0fff" y="359.04"/>
      </g>
     </g>
    </g>
    <g id="ytick_4">
     <g id="line2d_11">
      <g>
       <use style="fill:#262626;stroke:#262626;" x="648" xlink:href="#m98e78e0fff" y="286.56"/>
      </g>
     </g>
    </g>
    <g id="ytick_5">
     <g id="line2d_12">
      <g>
       <use style="fill:#262626;stroke:#262626;" x="648" xlink:href="#m98e78e0fff" y="214.08"/>
      </g>
     </g>
    </g>
    <g id="ytick_6">
     <g id="line2d_13">
      <g>
       <use style="fill:#262626;stroke:#262626;" x="648" xlink:href="#m98e78e0fff" y="141.6"/>
      </g>
     </g>
    </g>
    <g id="ytick_7">
     <g id="line2d_14">
      <g>
       <use style="fill:#262626;stroke:#262626;" x="648" xlink:href="#m98e78e0fff" y="69.12"/>
      </g>
     </g>
    </g>
   </g>
   <g id="line2d_15">
    <path clip-path="url(#pc31d9f2bf0)" d="M 90 449.134224 
L 102.662305 446.21855 
L 108.06216 445.595098 
L 112.267721 445.352529 
L 115.855398 445.307583 
L 119.048462 445.388875 
L 121.96142 445.559608 
L 124.662295 445.797827 
L 127.195408 446.089168 
L 129.591545 446.423616 
L 131.873121 446.793857 
L 134.057058 447.194353 
L 136.156502 447.62079 
L 138.181909 448.06973 
L 140.141755 448.538381 
L 142.043026 449.024439 
L 143.891561 449.525976 
L 145.692299 450.041359 
L 147.449462 450.569193 
L 149.166692 451.108273 
L 150.847158 451.657553 
L 152.493638 452.216115 
L 154.108583 452.783151 
L 155.694166 453.357945 
L 157.252329 453.939857 
L 158.784813 454.528318 
L 160.293185 455.122814 
L 161.778864 455.722881 
L 163.243138 456.328102 
L 164.687183 456.938094 
L 166.112071 457.552511 
L 167.518788 458.171036 
L 168.90824 458.79338 
L 170.281263 459.419277 
L 171.638631 460.04848 
L 172.98106 460.680766 
L 174.309216 461.315924 
L 175.623719 461.953764 
L 176.925147 462.594107 
L 178.21404 463.236786 
L 179.490905 463.881649 
L 180.756217 464.528553 
L 182.010421 465.177363 
L 183.253936 465.827957 
L 184.487159 466.480219 
L 185.710461 467.13404 
L 186.924195 467.78932 
L 188.128695 468.445963 
L 189.324275 469.103883 
L 190.511236 469.762995 
L 191.689861 470.423223 
L 192.86042 471.084494 
L 194.023171 471.74674 
L 195.178356 472.409896 
L 196.32621 473.073903 
L 197.466955 473.738705 
L 198.600803 474.404248 
L 199.727956 475.070484 
L 200.848609 475.737365 
L 201.962947 476.404849 
L 203.071149 477.072893 
L 204.173383 477.74146 
L 205.269815 478.410513 
L 206.3606 479.080019 
L 207.445889 479.749947 
L 208.525828 480.420265 
L 209.600555 481.090947 
L 210.670204 481.761967 
L 211.734905 482.4333 
L 212.794782 483.104924 
L 213.849954 483.776817 
L 214.900538 484.448961 
L 215.946644 485.121335 
L 216.98838 485.793924 
L 218.025851 486.466712 
L 219.059156 487.139684 
L 220.088393 487.812827 
L 221.113656 488.486128 
L 222.135036 489.159577 
L 223.15262 489.833162 
L 224.166494 490.506874 
L 225.176741 491.180704 
L 226.18344 491.854646 
L 227.186669 492.528692 
L 228.186504 493.202835 
L 229.183017 493.877071 
L 230.17628 494.551395 
L 231.16636 495.225803 
L 232.153326 495.900292 
L 233.137242 496.574858 
L 234.118171 497.2495 
L 235.096174 497.924216 
L 236.071312 498.599006 
L 237.043642 499.273868 
L 238.013221 499.948803 
L 238.980104 500.623811 
L 239.944344 501.298893 
L 240.905995 501.974051 
L 241.865106 502.649287 
L 242.821727 503.324602 
L 243.775907 504 
" style="fill:none;stroke:#0072b2;stroke-dasharray:11.1,4.8;stroke-dashoffset:0;stroke-width:3;"/>
   </g>
   <g id="line2d_16">
    <path clip-path="url(#pc31d9f2bf0)" d="M 90 384.328692 
L 106.005573 370.924153 
L 112.920556 367.406721 
L 118.357063 365.485119 
L 123.035728 364.373375 
L 127.235053 363.767916 
L 131.097561 363.513652 
L 134.707738 363.5189 
L 138.120514 363.724273 
L 141.373961 364.088807 
L 144.495742 364.582917 
L 147.506698 365.184468 
L 150.422983 365.87644 
L 153.257418 366.645452 
L 156.020376 367.48079 
L 158.720388 368.373745 
L 161.364567 369.317149 
L 163.958919 370.305037 
L 166.508566 371.332401 
L 169.017917 372.395002 
L 171.490803 373.489231 
L 173.930569 374.611992 
L 176.340165 375.760623 
L 178.722201 376.932821 
L 181.079 378.126587 
L 183.412642 379.340186 
L 185.724999 380.5721 
L 188.017758 381.821007 
L 190.292448 383.085751 
L 192.550461 384.36532 
L 194.793066 385.658829 
L 197.021425 386.965504 
L 199.236606 388.284672 
L 201.439589 389.615745 
L 203.631281 390.958212 
L 205.81252 392.311632 
L 207.984081 393.675627 
L 210.146688 395.049871 
L 212.301011 396.434091 
L 214.447677 397.828058 
L 216.587271 399.231582 
L 218.72034 400.644511 
L 220.847397 402.066726 
L 222.968925 403.498138 
L 225.085376 404.938686 
L 227.197176 406.388333 
L 229.304728 407.847065 
L 231.40841 409.314891 
L 233.50858 410.791837 
L 235.605579 412.277947 
L 237.699726 413.77328 
L 239.791327 415.277913 
L 241.880669 416.791933 
L 243.968028 418.315442 
L 246.053665 419.848553 
L 248.137827 421.391389 
L 250.220752 422.944082 
L 252.302664 424.506777 
L 254.38378 426.079622 
L 256.464304 427.662778 
L 258.544432 429.256408 
L 260.624353 430.860687 
L 262.704246 432.475792 
L 264.784283 434.101908 
L 266.864629 435.739223 
L 268.945442 437.387933 
L 271.026873 439.048237 
L 273.109069 440.720338 
L 275.192168 442.404442 
L 277.276306 444.100761 
L 279.361611 445.809509 
L 281.448208 447.530903 
L 283.536217 449.265163 
L 285.625752 451.012511 
L 287.716925 452.773174 
L 289.809843 454.547379 
L 291.904608 456.335355 
L 294.001322 458.137334 
L 296.100079 459.95355 
L 298.200973 461.784237 
L 300.304093 463.629633 
L 302.409526 465.489975 
L 304.517355 467.365502 
L 306.627663 469.256456 
L 308.740527 471.163078 
L 310.856023 473.085611 
L 312.974225 475.024297 
L 315.095204 476.979382 
L 317.219029 478.951111 
L 319.345766 480.939729 
L 321.475482 482.945482 
L 323.608237 484.968619 
L 325.744095 487.009385 
L 327.883113 489.068029 
L 330.025349 491.1448 
L 332.170859 493.239945 
L 334.319697 495.353713 
L 336.471916 497.486353 
L 338.627567 499.638115 
L 340.7867 501.809247 
L 342.949363 504 
" style="fill:none;stroke:#c44e52;stroke-dasharray:11.1,4.8;stroke-dashoffset:0;stroke-width:3;"/>
   </g>
   <g id="line2d_17">
    <path clip-path="url(#pc31d9f2bf0)" d="M 90 210.805296 
L 111.001031 161.48156 
L 119.942067 149.58186 
L 126.974898 143.284448 
L 133.054426 139.656689 
L 138.548082 137.590425 
L 143.64311 136.53263 
L 148.450039 136.164665 
L 153.040437 136.285907 
L 157.4637 136.762247 
L 161.755566 137.500145 
L 165.942845 138.432306 
L 170.046233 139.509192 
L 174.082083 140.693732 
L 178.063568 141.95786 
L 182.001476 143.280177 
L 185.904761 144.644325 
L 189.780952 146.03782 
L 193.636438 147.4512 
L 197.476698 148.877399 
L 201.306466 150.311259 
L 205.129862 151.749166 
L 208.950499 153.188763 
L 212.771558 154.628726 
L 216.595861 156.068581 
L 220.425921 157.508563 
L 224.263986 158.949495 
L 228.112074 160.3927 
L 231.972008 161.839913 
L 235.845436 163.293224 
L 239.733853 164.75502 
L 243.638623 166.227941 
L 247.56099 167.714841 
L 251.502095 169.218758 
L 255.462983 170.742883 
L 259.444617 172.290539 
L 263.447885 173.865163 
L 267.473608 175.470285 
L 271.522544 177.109515 
L 275.595399 178.78653 
L 279.692826 180.505066 
L 283.815434 182.268902 
L 287.963792 184.081859 
L 292.138429 185.947787 
L 296.33984 187.870562 
L 300.568489 189.85408 
L 304.82481 191.90225 
L 309.10921 194.018993 
L 313.422073 196.208237 
L 317.763759 198.473912 
L 322.134606 200.81995 
L 326.534934 203.25028 
L 330.965044 205.76883 
L 335.42522 208.379517 
L 339.915731 211.086255 
L 344.43683 213.892947 
L 348.988759 216.803486 
L 353.571744 219.821752 
L 358.186003 222.951615 
L 362.831738 226.19693 
L 367.509146 229.561538 
L 372.218409 233.049265 
L 376.959703 236.663923 
L 381.733196 240.409306 
L 386.539046 244.289194 
L 391.377403 248.307349 
L 396.248411 252.467516 
L 401.152209 256.773424 
L 406.088925 261.228783 
L 411.058685 265.837288 
L 416.061608 270.602615 
L 421.097807 275.528421 
L 426.167391 280.618347 
L 431.270464 285.876017 
L 436.407123 291.305034 
L 441.577465 296.908987 
L 446.781579 302.691445 
L 452.019553 308.65596 
L 457.291468 314.806066 
L 462.597405 321.14528 
L 467.93744 327.677101 
L 473.311646 334.405011 
L 478.720092 341.332475 
L 484.162845 348.462939 
L 489.639969 355.799835 
L 495.151527 363.346576 
L 500.697576 371.106558 
L 506.278174 379.083161 
L 511.893375 387.27975 
L 517.543231 395.69967 
L 523.227792 404.346253 
L 528.947106 413.222814 
L 534.701219 422.332652 
L 540.490176 431.679048 
L 546.314018 441.265271 
L 552.172788 451.094572 
L 558.066523 461.170189 
L 563.995263 471.495341 
L 569.959042 482.073235 
L 575.957897 492.907063 
L 581.991859 504 
" style="fill:none;stroke:#008000;stroke-dasharray:11.1,4.8;stroke-dashoffset:0;stroke-width:3;"/>
   </g>
   <g id="patch_3">
    <path d="M 90 504 
L 90 69.12 
" style="fill:none;stroke:#262626;stroke-linecap:square;stroke-linejoin:miter;"/>
   </g>
   <g id="patch_4">
    <path d="M 648 504 
L 648 69.12 
" style="fill:none;stroke:#262626;stroke-linecap:square;stroke-linejoin:miter;"/>
   </g>
   <g id="patch_5">
    <path d="M 90 504 
L 648 504 
" style="fill:none;stroke:#262626;stroke-linecap:square;stroke-linejoin:miter;"/>
   </g>
   <g id="patch_6">
    <path d="M 90 69.12 
L 648 69.12 
" style="fill:none;stroke:#262626;stroke-linecap:square;stroke-linejoin:miter;"/>
   </g>
  </g>
 </g>
 <defs>
  <clipPath id="pc31d9f2bf0">
   <rect height="434.88" width="558" x="90" y="69.12"/>
  </clipPath>
 </defs>
</svg>
